<svg width="269" height="259" viewBox="0 0 269 259" fill="none" xmlns="http://www.w3.org/2000/svg">
<path d="M88.2586 225.516H0L4.96517 220.614H91.158L88.2586 225.516Z" fill="#E0E0E0"/>
<path d="M162.392 122.09C162.946 121.82 163.474 121.499 163.968 121.129C164.919 120.495 166.215 119.607 167.592 118.602L168.308 118.094L168.045 118.031C168.806 119.363 169.486 120.531 169.993 121.356C170.247 121.82 170.55 122.255 170.899 122.652C170.736 122.156 170.514 121.681 170.238 121.238C169.794 120.377 169.142 119.181 168.426 117.85L168.317 117.668L168.154 117.786L167.429 118.294C166.016 119.299 164.711 120.223 163.805 120.912C163.293 121.252 162.819 121.647 162.392 122.09Z" fill="#263238"/>
<path d="M266.776 222.213C267.921 205.845 255.581 191.647 239.213 190.502C222.845 189.356 208.647 201.696 207.502 218.064C206.356 234.432 218.696 248.63 235.064 249.776C251.432 250.921 265.63 238.581 266.776 222.213Z" fill="#263238"/>
<path d="M206.218 219.59V219.672C206.183 227.481 209.232 234.988 214.702 240.561C220.172 246.135 227.62 249.324 235.429 249.436C243.237 249.549 250.774 246.574 256.402 241.16C262.029 235.747 265.293 228.33 265.483 220.523C265.483 220.523 265.483 220.469 265.483 220.451L206.218 219.59Z" fill="#263238"/>
<path d="M215.042 219.799C214.976 223.923 216.136 227.973 218.373 231.438C220.611 234.903 223.826 237.626 227.612 239.262C231.399 240.898 235.585 241.374 239.642 240.629C243.699 239.884 247.443 237.952 250.401 235.078C253.359 232.204 255.398 228.516 256.259 224.483C257.12 220.449 256.765 216.251 255.238 212.419C253.712 208.587 251.082 205.295 247.683 202.959C244.284 200.622 240.268 199.347 236.144 199.295C230.63 199.224 225.312 201.343 221.357 205.186C217.401 209.03 215.131 214.284 215.042 219.799Z" fill="#FAFAFA"/>
<path d="M236.145 199.295C230.631 199.224 225.313 201.343 221.358 205.186C217.402 209.03 215.132 214.284 215.043 219.799L256.649 220.397C256.72 214.882 254.601 209.564 250.758 205.609C246.914 201.654 241.66 199.383 236.145 199.295Z" fill="#E0E0E0"/>
<path d="M223.171 219.916C223.133 222.426 223.841 224.889 225.204 226.996C226.567 229.103 228.525 230.758 230.829 231.752C233.133 232.747 235.68 233.035 238.149 232.581C240.617 232.127 242.895 230.951 244.694 229.202C246.494 227.453 247.734 225.21 248.259 222.756C248.783 220.302 248.568 217.747 247.64 215.416C246.712 213.084 245.113 211.08 243.046 209.657C240.979 208.234 238.537 207.456 236.027 207.422C232.666 207.376 229.424 208.666 227.014 211.009C224.603 213.351 223.221 216.555 223.171 219.916Z" fill="#263238"/>
<path d="M221.783 176.643C221.783 176.643 252.127 167.465 264.685 200.427L201.189 220.098L221.783 176.643Z" fill="#455A64"/>
<path d="M23.3575 219.672C23.2738 225.533 24.9302 231.287 28.117 236.207C31.3038 241.127 35.878 244.991 41.261 247.311C46.6441 249.631 52.5943 250.303 58.3591 249.242C64.124 248.18 69.4445 245.433 73.6479 241.347C77.8513 237.261 80.7488 232.021 81.9739 226.289C83.1991 220.557 82.6968 214.59 80.5307 209.143C78.3645 203.696 74.6318 199.014 69.8046 195.688C64.9774 192.363 59.2724 190.544 53.4113 190.461C49.5196 190.404 45.655 191.115 42.0382 192.553C38.4214 193.991 35.1233 196.127 32.3324 198.84C29.5414 201.552 27.3123 204.788 25.7724 208.363C24.2324 211.937 23.4118 215.78 23.3575 219.672Z" fill="#263238"/>
<path d="M23.3585 219.59V219.672C23.3241 227.481 26.3731 234.988 31.8428 240.561C37.3126 246.135 44.761 249.324 52.5693 249.436C60.3776 249.549 67.9146 246.574 73.5423 241.16C79.1699 235.747 82.4334 228.33 82.6234 220.523C82.6234 220.523 82.6234 220.469 82.6234 220.451L23.3585 219.59Z" fill="#263238"/>
<path d="M32.1829 219.799C32.1168 223.924 33.2766 227.976 35.5155 231.441C37.7543 234.906 40.9714 237.629 44.7591 239.265C48.5468 240.9 52.7347 241.374 56.7923 240.627C60.8498 239.88 64.5942 237.946 67.5513 235.069C70.5084 232.192 72.545 228.502 73.403 224.466C74.261 220.431 73.9019 216.232 72.3712 212.4C70.8404 208.569 68.2069 205.279 64.8043 202.946C61.4017 200.612 57.3831 199.342 53.2577 199.295C47.7477 199.232 42.4371 201.353 38.4875 205.196C34.538 209.039 32.2712 214.289 32.1829 219.799Z" fill="#FAFAFA"/>
<path d="M53.2581 199.295C47.7435 199.224 42.4258 201.343 38.4704 205.186C34.515 209.03 32.2444 214.284 32.1561 219.799L73.7621 220.397C73.8323 214.882 71.7137 209.564 67.8704 205.609C64.027 201.654 58.7725 199.383 53.2581 199.295Z" fill="#E0E0E0"/>
<path d="M40.3102 219.916C40.2728 222.426 40.9805 224.889 42.3437 226.996C43.707 229.103 45.6645 230.758 47.9687 231.752C50.2729 232.747 52.8202 233.035 55.2882 232.581C57.7563 232.127 60.0343 230.951 61.8339 229.202C63.6335 227.453 64.874 225.21 65.3983 222.756C65.9227 220.302 65.7073 217.747 64.7795 215.416C63.8517 213.084 62.2531 211.08 60.1861 209.657C58.119 208.234 55.6763 207.456 53.1671 207.422C49.8059 207.376 46.5639 208.666 44.1532 211.009C41.7425 213.351 40.3603 216.555 40.3102 219.916Z" fill="#263238"/>
<path d="M95.1455 208.201C94.9371 208.283 79.5342 205.791 79.5342 205.791C78.7002 206.882 77.638 207.777 76.422 208.414C75.206 209.051 73.8654 209.414 72.4942 209.479C65.8347 209.796 59.3111 210.095 53.6664 210.385C51.1491 210.5 48.7793 211.606 47.0737 213.461C45.368 215.316 44.4647 217.77 44.5606 220.288C44.6631 222.688 45.6635 224.961 47.3636 226.658C49.0636 228.355 51.3391 229.351 53.7389 229.448L86.5561 230.735C91.9925 230.952 99.1322 227.672 102.503 223.486L95.1455 208.201Z" fill="#455A64"/>
<path d="M14.5154 195.081C14.5154 195.081 13.1019 166.205 40.2473 160.18V156.483H135.329V165.308C135.329 165.308 121.375 182.116 125.933 196.069C130.49 210.022 131.913 211.472 131.913 211.472H186.031C190.298 205.466 192.676 198.324 192.863 190.959C193.153 178.718 188.061 157.77 184.264 144.388C180.812 132.21 178.629 122.035 178.629 122.035L194.856 116.599C194.856 116.599 224.901 155.876 226.124 158.087C227.347 160.298 231.56 165.444 230.546 176.734C229.531 188.023 202.567 222.87 195.454 226.802C188.342 230.735 181.918 230.979 175.575 231.967C170.03 232.818 129.068 232.248 118.349 232.085C114.623 232.064 110.97 231.051 107.766 229.149C104.559 227.21 102.149 223.994 99.4941 218.711L93.8494 207.666L14.5154 195.081Z" fill="#455A64"/>
<path d="M21.7897 193.106L9.81169 211.835C9.46854 212.358 9.30277 212.978 9.33887 213.603C9.37497 214.227 9.61102 214.824 10.0122 215.304C10.4133 215.785 10.9583 216.123 11.5666 216.27C12.175 216.417 12.8144 216.365 13.3906 216.12C14.8806 215.462 16.2402 214.541 17.4044 213.402C22.886 208.183 32.6533 194.456 32.6533 194.456L21.7897 193.106Z" fill="#455A64"/>
<path d="M107.675 196.45C107.688 196.357 107.709 196.267 107.738 196.178C107.799 195.991 107.88 195.728 107.983 195.39C108.271 194.377 108.48 193.344 108.608 192.3C109.025 188.431 108.4 184.52 106.796 180.974C105.707 178.532 104.215 176.29 102.383 174.342C100.275 172.12 97.8285 170.246 95.135 168.788C92.149 167.176 88.9532 165.986 85.6396 165.254C82.0675 164.482 78.4214 164.105 74.7669 164.131C71.1292 164.159 67.4972 164.425 63.8943 164.928C60.3879 165.408 57.0174 165.988 53.8462 166.74C48.2091 167.933 42.7761 169.942 37.7184 172.702C34.3233 174.588 31.2196 176.956 28.5039 179.733C27.5435 180.721 26.8639 181.545 26.4018 182.107L25.8854 182.75C25.8314 182.825 25.7708 182.895 25.7042 182.959C26.5097 181.772 27.4194 180.659 28.4223 179.633C31.1126 176.801 34.2126 174.388 37.6188 172.476C42.6822 169.659 48.1357 167.61 53.8009 166.396C56.9811 165.662 60.3516 165.073 63.8671 164.584C67.4993 164.069 71.1619 163.796 74.8304 163.768C78.5038 163.742 82.1687 164.125 85.7574 164.91C89.1041 165.672 92.3298 166.891 95.3434 168.534C98.0732 170.015 100.55 171.921 102.682 174.179C104.532 176.158 106.03 178.438 107.113 180.92C108.721 184.509 109.325 188.467 108.862 192.372C108.717 193.423 108.484 194.46 108.164 195.471L107.883 196.25C107.818 196.321 107.748 196.387 107.675 196.45Z" fill="#263238"/>
<path d="M102.186 189.971C102.141 189.971 102.34 189.509 102.548 188.685C102.816 187.495 102.85 186.264 102.648 185.061C102.37 183.292 101.775 181.588 100.89 180.032C100.386 179.101 99.7977 178.219 99.1324 177.395C98.4247 176.511 97.6261 175.703 96.7495 174.985C95.0503 173.593 93.1423 172.477 91.0958 171.678C89.4176 171.032 87.6781 170.559 85.9041 170.265C84.704 170.063 83.4943 169.924 82.2799 169.848C81.8312 169.844 81.3832 169.811 80.9389 169.748C81.0562 169.733 81.175 169.733 81.2923 169.748C81.5188 169.748 81.854 169.748 82.2889 169.748C83.5023 169.767 84.7131 169.867 85.9131 170.047C87.7137 170.309 89.4814 170.762 91.1864 171.397C93.2772 172.195 95.2261 173.324 96.9579 174.741C97.8466 175.485 98.6517 176.323 99.359 177.241C100.044 178.091 100.65 179.001 101.171 179.96C102.063 181.559 102.65 183.31 102.902 185.124C103.078 186.35 102.997 187.6 102.666 188.794C102.582 189.106 102.467 189.41 102.322 189.7C102.284 189.794 102.239 189.885 102.186 189.971Z" fill="#F5F5F5"/>
<g opacity="0.4">
<path d="M83.5751 164.665C88.6953 165.607 93.5677 167.59 97.8908 170.491C102.239 173.381 105.59 177.541 107.486 182.406C109.38 187.289 109.099 193.758 107.096 197.808L113.819 198.361C116.084 190.823 113.62 181.563 108.184 175.655C105.071 172.214 101.275 169.459 97.0379 167.566C92.8008 165.674 88.2156 164.686 83.5751 164.665Z" fill="black"/>
</g>
<path d="M135.283 159.845C135.283 159.954 113.909 160.035 87.5518 160.035C61.1947 160.035 39.8209 159.954 39.8209 159.845C39.8209 159.736 61.1947 159.655 87.5518 159.655C113.909 159.655 135.283 159.746 135.283 159.845Z" fill="#263238"/>
<path d="M135.327 156.484C136.292 155.255 136.888 153.779 137.049 152.225C137.194 149.833 136.143 146.843 133.542 146.843H100.707C99.4413 146.843 98.1882 147.093 97.0191 147.577C95.8499 148.062 94.7878 148.772 93.8933 149.668C92.9988 150.563 92.2896 151.626 91.8061 152.795C91.3226 153.965 91.0744 155.218 91.0756 156.484H135.327Z" fill="#455A64"/>
<path d="M178.629 122.018L172.911 110.112C172.148 108.478 172.021 106.619 172.556 104.896C173.09 103.174 174.248 101.713 175.802 100.798L192.872 90.6139C193.764 90.0801 194.785 89.7983 195.825 89.7985H199.513L200.999 113.863L195.3 116.092L198.924 121.945L178.629 122.018Z" fill="#455A64"/>
<path d="M199.568 90.668C199.568 90.668 205.412 92.0089 206.145 101.015C206.879 110.021 200.999 112.794 200.999 112.794L199.568 90.668Z" fill="white"/>
<path d="M199.567 90.6679C199.607 90.8249 199.628 90.9861 199.63 91.1481L199.739 92.4438C199.839 93.6217 199.956 95.2163 200.11 97.1734C200.418 101.16 200.826 106.642 201.225 112.812L200.89 112.613C201.517 112.269 202.094 111.839 202.602 111.335C203.76 110.215 204.641 108.841 205.175 107.321C205.681 105.904 205.953 104.413 205.982 102.909C206.076 100.343 205.583 97.7893 204.541 95.4428C203.811 93.8744 202.676 92.5294 201.252 91.5468C200.719 91.1943 200.155 90.891 199.567 90.6407C199.734 90.6517 199.899 90.6884 200.056 90.7495C200.508 90.9105 200.942 91.117 201.352 91.3656C202.858 92.3135 204.067 93.6669 204.84 95.2707C205.955 97.6521 206.495 100.262 206.417 102.891C206.4 104.435 206.128 105.966 205.61 107.421C205.042 109.011 204.112 110.448 202.892 111.616C202.354 112.151 201.744 112.608 201.08 112.975L200.763 113.138V112.776C200.364 106.497 200.056 100.906 199.857 96.9288C199.766 94.9989 199.685 93.4223 199.63 92.2535L199.576 91.0122C199.564 90.8979 199.561 90.7828 199.567 90.6679Z" fill="#263238"/>
<path d="M178.538 105.736C178.538 105.736 162.981 113.111 161.078 114.28C159.764 115.122 158.632 116.59 159.665 119.181C161.431 123.585 168.725 119.444 168.725 119.444L183.222 112.196C183.222 112.196 188.785 109.559 186.728 106.279C184.391 102.637 178.538 105.736 178.538 105.736Z" fill="#263238"/>
<path d="M176.572 96.0772C179.119 96.0772 181.183 92.4385 181.183 87.9499C181.183 83.4613 179.119 79.8226 176.572 79.8226C174.025 79.8226 171.96 83.4613 171.96 87.9499C171.96 92.4385 174.025 96.0772 176.572 96.0772Z" fill="#263238"/>
<path d="M177.324 93.54L179.861 102.32C180.324 102.088 180.693 101.704 180.908 101.232C181.122 100.761 181.168 100.23 181.039 99.7284C180.405 96.7203 180.042 94.582 179.344 91.9454C179.263 91.6826 177.324 93.54 177.324 93.54Z" fill="#263238"/>
<g opacity="0.3">
<path d="M127.183 199.82C126.929 199.096 126.676 198.362 126.431 197.601C126.186 196.839 125.942 196.16 125.751 195.453C125.455 194.369 125.243 193.263 125.117 192.146C120.841 209.551 127.364 221.81 138.581 222.671C154.953 223.93 174.923 224.846 182.978 222.725C197.701 218.866 203.101 206.589 204.388 204.604C205.674 202.62 217.39 181.174 210.214 160.57C203.038 139.967 190.534 118.076 190.525 118.076L178.61 122.054C178.61 122.054 180.794 132.229 184.246 144.406C188.043 157.789 193.135 178.737 192.845 190.977C192.658 198.342 190.28 205.484 186.013 211.49H131.913C131.913 211.49 130.753 210.331 127.183 199.857" fill="black"/>
</g>
<path d="M12.3496 190.551L12.7302 186.42L111.49 197.8C112.81 197.956 114.085 198.38 115.236 199.046C116.386 199.712 117.389 200.606 118.182 201.673C118.975 202.74 119.542 203.958 119.848 205.252C120.154 206.546 120.193 207.889 119.962 209.198L119.518 211.699L17.3058 196.839C15.8316 196.625 14.4958 195.854 13.5737 194.684C12.6516 193.514 12.2135 192.035 12.3496 190.551Z" fill="#455A64"/>
<g opacity="0.3">
<path d="M12.3496 190.551L12.7302 186.419L111.49 197.799C112.81 197.956 114.085 198.38 115.236 199.046C116.386 199.712 117.389 200.606 118.182 201.673C118.975 202.74 119.542 203.958 119.848 205.252C120.154 206.546 120.193 207.888 119.962 209.198L119.518 211.698L17.3058 196.839C15.8316 196.625 14.4958 195.853 13.5737 194.683C12.6516 193.513 12.2135 192.034 12.3496 190.551Z" fill="black"/>
</g>
<g opacity="0.3">
<path d="M204.407 218.186C204.407 218.186 226.152 194.275 230.637 175.465C232.891 175.454 235.142 175.62 237.369 175.963C237.369 175.963 224.503 210.919 204.407 218.186Z" fill="black"/>
</g>
<path d="M230.319 167.039C230.378 167.237 230.418 167.44 230.437 167.646C230.491 168.045 230.609 168.625 230.691 169.395C230.889 171.557 230.832 173.734 230.518 175.882C230.015 179.072 229.048 182.17 227.646 185.079C225.926 188.614 224.005 192.047 221.893 195.362C218.104 201.423 213.847 207.179 209.163 212.577C207.396 214.67 205.937 216.338 204.913 217.479L203.745 218.793C203.613 218.953 203.467 219.102 203.31 219.237C203.418 219.063 203.543 218.899 203.681 218.748L204.805 217.389L208.963 212.405C213.572 206.977 217.784 201.224 221.567 195.19C223.671 191.883 225.598 188.465 227.338 184.952C228.734 182.085 229.716 179.034 230.256 175.891C230.595 173.762 230.689 171.6 230.537 169.449C230.491 168.688 230.392 168.099 230.364 167.701C230.33 167.482 230.315 167.261 230.319 167.039Z" fill="#263238"/>
<path d="M192.727 218.014C190.322 216.011 188.083 213.817 186.031 211.454C187.273 212.408 188.436 213.459 189.51 214.598C190.674 215.647 191.75 216.789 192.727 218.014Z" fill="#263238"/>
<path d="M128.198 217.28C128.544 216.162 129.084 215.113 129.792 214.181C130.402 213.184 131.174 212.296 132.076 211.553C132.166 211.626 131.17 212.822 130.11 214.389C129.049 215.957 128.297 217.325 128.198 217.28Z" fill="#263238"/>
<path d="M86.419 231.088C87.6068 230.003 88.6077 228.729 89.3818 227.319C90.1949 225.778 90.691 224.09 90.8406 222.354C91.0615 220.238 90.6926 218.102 89.7747 216.183C88.8568 214.264 87.4257 212.637 85.6398 211.481C84.1989 210.501 82.5747 209.823 80.8649 209.488C79.282 209.199 77.6619 209.177 76.0719 209.424C76.0719 209.424 76.1806 209.379 76.3981 209.325C76.6953 209.242 76.9981 209.182 77.3041 209.143C78.4908 208.98 79.6961 209.007 80.874 209.225C82.6289 209.535 84.3007 210.205 85.7848 211.191C87.6443 212.368 89.1335 214.046 90.0809 216.032C91.0282 218.018 91.3952 220.232 91.1396 222.417C90.9726 224.193 90.4389 225.914 89.5721 227.473C88.9993 228.523 88.2656 229.477 87.3976 230.3C87.0986 230.599 86.8177 230.78 86.6546 230.925C86.5826 230.988 86.5036 231.043 86.419 231.088Z" fill="#263238"/>
<path d="M50.3494 223.513C50.1045 222.37 49.986 221.203 49.996 220.034C49.8757 218.869 49.8757 217.694 49.996 216.528C50.2413 217.674 50.3598 218.844 50.3494 220.016C50.4748 221.179 50.4748 222.351 50.3494 223.513Z" fill="#263238"/>
<path d="M52.9686 223.523C52.6365 222.388 52.4239 221.222 52.3343 220.043C52.1264 218.881 52.0384 217.7 52.0716 216.519C52.41 217.652 52.6227 218.819 52.7058 219.998C52.9245 221.159 53.0127 222.342 52.9686 223.523Z" fill="#263238"/>
<path d="M93.7044 156.484C93.7044 156.583 81.6992 156.674 66.8852 156.674C52.0713 156.674 40.057 156.583 40.057 156.484C40.057 156.384 52.0713 156.293 66.8852 156.293C81.6992 156.293 93.7044 156.375 93.7044 156.484Z" fill="#263238"/>
<path d="M30.8246 240.221C30.7072 240.128 30.6009 240.021 30.5075 239.904C30.3172 239.686 30.0091 239.369 29.6648 238.925C28.6491 237.697 27.7398 236.385 26.9467 235.002C24.326 230.422 22.9572 225.232 22.9779 219.955C22.9986 214.678 24.408 209.499 27.0645 204.939C27.8564 203.562 28.7659 202.255 29.7826 201.034C30.1269 200.59 30.4441 200.282 30.6343 200.065C30.732 199.948 30.8412 199.842 30.9605 199.748C30.8844 199.876 30.7964 199.998 30.6977 200.11C30.5165 200.346 30.2266 200.672 29.9004 201.125C28.9365 202.37 28.0701 203.688 27.3091 205.066C24.7465 209.61 23.3895 214.733 23.3673 219.95C23.3451 225.166 24.6584 230.301 27.1823 234.866C27.9368 236.251 28.7939 237.578 29.7464 238.835C30.0635 239.297 30.3535 239.614 30.5256 239.859C30.6395 239.967 30.7399 240.089 30.8246 240.221Z" fill="#455A64"/>
<path d="M132.084 228.442C132.084 228.442 132.918 247.823 132.936 248.756L137.049 251.873L146.916 249.417L146.01 227.998L132.084 228.442Z" fill="#FFBE9D"/>
<path d="M159.267 57.9233L169.587 63.4412L186.847 50.8561L191.866 59.5179C191.866 59.5179 181.356 69.6567 177.623 73.1087C173.89 76.5608 171.444 78.4001 168.717 77.8655C165.99 77.331 150.804 68.8956 150.804 68.8956C150.804 68.8956 155.226 58.1045 159.267 57.9233Z" fill="#FFBE9D"/>
<path d="M169.641 67.2827C169.641 67.2827 169.704 67.3461 169.74 67.4548V67.5454H169.514V67.4639V67.1921C169.451 66.6749 169.418 66.1546 169.414 65.6336C169.329 64.8884 169.394 64.1336 169.605 63.4138C169.859 64.1214 169.954 64.876 169.885 65.6246C169.885 66.2316 169.885 66.7843 169.84 67.1921V67.4639V67.5454C169.369 67.5454 169.704 67.5454 169.605 67.5454V67.4458C169.577 67.3461 169.614 67.2827 169.641 67.2827Z" fill="#EB996E"/>
<path d="M188.994 61.8737C189.338 61.9825 192.554 58.5123 192.554 58.5123C192.554 58.5123 198.58 58.4035 200.02 57.6062C201.461 56.8089 203.645 53.837 203.645 53.837L200.736 44.9758C198.046 45.1519 195.369 45.4847 192.718 45.9725C190.797 46.5071 186.203 51.3182 186.203 51.3182L184.228 54.3897C184.228 54.3897 183.612 60.2157 188.994 61.8737Z" fill="#FFBE9D"/>
<path d="M199.177 58.1045C199.915 58.0517 200.65 57.9579 201.378 57.8236C202.828 57.579 204.323 57.4521 204.278 56.0115C204.282 55.7728 204.235 55.536 204.139 55.3172C204.044 55.0984 203.903 54.9025 203.725 54.743C203.725 54.743 204.794 54.299 204.785 53.4927C204.783 53.2581 204.725 53.0275 204.616 52.8196C204.508 52.6117 204.351 52.4325 204.16 52.2967C204.16 52.2967 205.637 51.6171 205.682 50.4211C205.688 49.9791 205.571 49.5441 205.344 49.1649C205.116 48.7857 204.788 48.4771 204.396 48.2738C204.396 48.2738 208.926 46.9781 209.288 46.8332C210.575 46.3076 213.03 45.1388 212.006 44.1784C211.635 43.8251 211.49 43.4355 208.899 43.7526C206.543 44.0335 202.837 44.9033 202.837 44.9033C202.837 44.9033 199.666 45.0573 197.999 45.2294C195.933 45.4186 193.886 45.7854 191.883 46.3258C189.745 47.3134 187.878 50.1221 187.878 50.1221L192.581 58.5122L199.177 58.1045Z" fill="#FFBE9D"/>
<path d="M203.373 54.7068C202.949 54.6493 202.522 54.625 202.095 54.6344H200.709C200.435 54.6128 200.159 54.6128 199.884 54.6344C199.571 54.674 199.279 54.8139 199.051 55.033C198.926 55.1444 198.835 55.2879 198.787 55.4478C198.739 55.6077 198.736 55.7777 198.779 55.9391C198.871 56.2224 199.069 56.4592 199.332 56.6005C199.546 56.733 199.774 56.8423 200.011 56.9267L200.609 57.1532C200.99 57.2891 201.289 57.3797 201.515 57.4341C201.742 57.4884 201.851 57.5156 201.851 57.4975C201.851 57.4794 201.398 57.3163 200.673 57.0263C200.247 56.8658 199.835 56.6719 199.44 56.4465C199.222 56.3234 199.057 56.1231 198.978 55.8847C198.949 55.7588 198.954 55.6272 198.994 55.5042C199.034 55.3812 199.107 55.2715 199.205 55.1871C199.402 54.9993 199.652 54.8761 199.921 54.8337C200.186 54.8117 200.453 54.8117 200.718 54.8337H202.104C202.53 54.8251 202.954 54.7827 203.373 54.7068Z" fill="#EB996E"/>
<path d="M198.427 48.5182C198.898 48.3175 199.314 48.0068 199.641 47.6122C200.022 47.2726 200.312 46.8427 200.484 46.3618C200.438 46.3618 200.067 46.8873 199.496 47.4763C198.925 48.0652 198.391 48.4729 198.427 48.5182Z" fill="#EB996E"/>
<path d="M194.602 46.4254C195.802 46.7143 196.894 47.3435 197.746 48.2375C198.588 49.1293 199.291 50.1435 199.83 51.2456C200.283 52.1517 200.672 53.1936 200.174 54.0363C199.87 54.4488 199.426 54.7356 198.925 54.8425C198.424 54.9494 197.901 54.8688 197.456 54.6161C196.586 54.0921 195.902 53.3097 195.499 52.3782C195.099 51.4498 194.588 50.5735 193.977 49.7688" fill="#FFBE9D"/>
<path d="M194.04 49.7596C194.04 49.7596 194.203 49.968 194.466 50.3848C194.798 50.9734 195.101 51.5782 195.372 52.1969C195.577 52.6339 195.82 53.0523 196.097 53.4473C196.414 53.9113 196.829 54.3008 197.311 54.5889C197.861 54.9016 198.508 54.9954 199.123 54.8517C199.463 54.7754 199.776 54.6096 200.029 54.3714C200.274 54.1249 200.436 53.8082 200.491 53.4654C200.555 52.7919 200.42 52.1145 200.102 51.5174C199.83 50.9695 199.527 50.4372 199.196 49.9227C198.653 49.0421 197.967 48.2582 197.166 47.6032C196.625 47.1641 196.012 46.8209 195.354 46.5884C195.175 46.5234 194.99 46.4749 194.801 46.4435C194.675 46.4435 194.611 46.4435 194.611 46.4435C194.611 46.4435 194.874 46.516 195.327 46.6881C195.964 46.9457 196.557 47.3003 197.085 47.7391C197.862 48.3965 198.526 49.1771 199.051 50.0496C199.365 50.5598 199.652 51.086 199.912 51.6261C200.21 52.1807 200.339 52.8108 200.283 53.4382C200.237 53.7444 200.098 54.029 199.884 54.2537C199.664 54.4623 199.392 54.6092 199.096 54.6795C198.526 54.8228 197.923 54.7418 197.411 54.453C196.95 54.1793 196.552 53.8119 196.242 53.3748C195.965 52.9904 195.72 52.5844 195.508 52.1607C195.211 51.5365 194.875 50.9313 194.502 50.3486C194.367 50.1492 194.24 50.0043 194.158 49.9046C194.077 49.8049 194.04 49.7506 194.04 49.7596Z" fill="#EB996E"/>
<path d="M203.236 54.7069C201.378 54.7084 199.521 54.8051 197.673 54.9968C197.145 55.0939 196.6 55.0469 196.097 54.8609C195.707 54.6706 195.562 53.6921 195.462 53.2753L202.276 52.2152" fill="#FFBE9D"/>
<path d="M202.276 52.2151C202.1 52.2137 201.924 52.2289 201.751 52.2604L200.301 52.4597L195.445 53.1755H195.345V53.2842C195.417 53.5922 195.481 53.9366 195.589 54.2718C195.633 54.4118 195.694 54.5457 195.771 54.6705C195.808 54.7337 195.854 54.7916 195.907 54.8426C195.966 54.8955 196.033 54.9383 196.106 54.9694C196.363 55.07 196.637 55.1192 196.912 55.1144C197.447 55.1144 197.936 55.0419 198.407 55.0057C199.313 54.9242 200.219 54.8517 200.908 54.8064C201.597 54.7611 202.195 54.7429 202.602 54.7248C202.807 54.7401 203.013 54.7401 203.218 54.7248C203.015 54.6907 202.809 54.6756 202.602 54.6795C202.195 54.6795 201.615 54.6795 200.899 54.6795C200.183 54.6795 199.331 54.7611 198.389 54.8335C197.918 54.8335 197.42 54.9332 196.921 54.9242C196.67 54.9303 196.42 54.884 196.187 54.7882C195.97 54.7158 195.87 54.4621 195.78 54.2174C195.689 53.9728 195.617 53.5651 195.544 53.248L195.463 53.3657C197.383 53.0667 199.087 52.7859 200.301 52.5775L201.742 52.3238C201.922 52.3021 202.101 52.2658 202.276 52.2151Z" fill="#EB996E"/>
<path d="M204.261 51.8347L197.167 53.1938C196.67 53.3189 196.155 53.3587 195.645 53.3116C195.391 53.2861 195.147 53.1984 194.935 53.0561C194.724 52.9138 194.55 52.7215 194.431 52.4961C194.326 52.1634 194.335 51.8055 194.454 51.4779C194.574 51.1503 194.798 50.8713 195.092 50.684C195.699 50.3232 196.375 50.0947 197.076 50.0135C199.233 49.5894 201.353 48.9987 203.419 48.2467" fill="#FFBE9D"/>
<path d="M203.401 48.2194C203.33 48.2291 203.26 48.2474 203.193 48.2737L202.604 48.464C202.097 48.618 201.363 48.8536 200.448 49.0982C199.532 49.3429 198.427 49.6237 197.195 49.8684C196.529 49.9554 195.881 50.1449 195.274 50.4301C194.948 50.6007 194.675 50.8577 194.486 51.1731C194.276 51.5008 194.192 51.8936 194.25 52.2785C194.294 52.4696 194.378 52.6492 194.497 52.8054C194.616 52.9616 194.766 53.0908 194.939 53.1845C195.261 53.3601 195.623 53.4506 195.99 53.4473C196.652 53.3988 197.309 53.2989 197.956 53.1483L201.245 52.4959L203.456 52.0429L204.054 51.907L204.262 51.8436C204.19 51.8335 204.117 51.8335 204.045 51.8436L203.437 51.9432L201.218 52.3328L197.92 52.949C197.285 53.0945 196.64 53.1884 195.99 53.2298C195.658 53.2349 195.33 53.1537 195.038 52.9943C194.891 52.915 194.763 52.8054 194.661 52.6726C194.559 52.5398 194.487 52.3869 194.449 52.2241C194.4 51.8893 194.474 51.548 194.658 51.2637C194.83 50.9813 195.074 50.7499 195.365 50.5932C195.955 50.3147 196.584 50.1283 197.231 50.0405C198.463 49.7868 199.569 49.4969 200.484 49.2341C201.399 48.9714 202.133 48.7086 202.631 48.5274L203.202 48.3009L203.401 48.2194Z" fill="#EB996E"/>
<path d="M190.071 53.5743C190.071 53.5743 190.171 53.7827 190.443 54.0274C190.807 54.3314 191.234 54.5511 191.693 54.6707C192.151 54.7948 192.631 54.8134 193.098 54.725C193.451 54.6525 193.65 54.5529 193.641 54.5257C193.013 54.6258 192.371 54.6105 191.748 54.4804C191.135 54.2903 190.566 53.9825 190.071 53.5743Z" fill="#EB996E"/>
<path d="M151.683 103.77C151.683 103.77 168.898 106.95 170.094 107.276C171.29 107.602 176.21 109.922 176.436 111.408C176.568 113.363 176.568 115.324 176.436 117.279C176.436 117.279 175.53 117.995 175.005 116.563C174.641 115.171 174.485 113.733 174.542 112.296L171.824 111.245L173.31 113.89L173.555 120.088C173.555 120.088 171.652 119.916 171.281 118.43C171.047 117.401 170.926 116.35 170.918 115.295L168.925 113.609L170.42 115.63L170.918 120.088C170.918 120.088 169.469 120.559 169.007 119.571C168.675 118.284 168.511 116.959 168.517 115.63L162.9 113.664L159.185 115.739L155.153 113.528C154.589 113.216 154.1 112.784 153.721 112.263C153.343 111.742 153.083 111.143 152.96 110.511L151.683 103.77Z" fill="#FFBE9D"/>
<path d="M117.307 18.2381L117.878 48.2737C117.922 50.6366 118.86 52.8949 120.503 54.5944C122.145 56.2939 124.37 57.3084 126.73 57.4339C128.007 57.4997 129.284 57.3029 130.481 56.8556C131.679 56.4084 132.773 55.7202 133.694 54.8337C134.615 53.9471 135.345 52.8811 135.838 51.7013C136.331 50.5216 136.577 49.2533 136.56 47.9747C136.56 45.1116 136.47 42.774 136.47 42.774C136.47 42.774 143.773 42.022 144.244 34.7826C144.507 30.5966 144.244 21.0649 144.035 13.7622C143.956 11.3724 142.98 9.1001 141.301 7.39762C139.622 5.69515 137.363 4.68733 134.975 4.57478L130.599 4.34827C128.808 4.36657 127.038 4.74279 125.395 5.45481C123.751 6.16683 122.266 7.20028 121.028 8.49438C119.79 9.78849 118.822 11.3171 118.183 12.9904C117.544 14.6637 117.246 16.4479 117.307 18.2381Z" fill="#FFBE9D"/>
<path d="M136.469 42.7013C133.124 42.5159 129.902 41.3778 127.182 39.4214C127.182 39.4214 129.239 44.8577 136.505 44.5315L136.469 42.7013Z" fill="#EB996E"/>
<path d="M142.314 20.5666C142.187 20.7025 141.408 20.0773 140.311 20.023C139.215 19.9686 138.354 20.485 138.245 20.3401C138.137 20.1951 138.327 20.0411 138.698 19.7964C139.199 19.4922 139.781 19.3469 140.366 19.3797C140.945 19.4075 141.501 19.6202 141.951 19.9867C142.277 20.2585 142.386 20.5122 142.314 20.5666Z" fill="#263238"/>
<path d="M131.595 22.9495C131.585 23.2203 131.47 23.4765 131.273 23.6629C131.077 23.8494 130.815 23.9511 130.544 23.9462C130.412 23.9486 130.28 23.9249 130.157 23.8766C130.034 23.8283 129.922 23.7562 129.827 23.6645C129.732 23.5728 129.656 23.4632 129.603 23.3421C129.551 23.221 129.522 23.0907 129.52 22.9586C129.529 22.6878 129.645 22.4316 129.841 22.2452C130.038 22.0587 130.3 21.957 130.571 21.9619C130.703 21.9583 130.835 21.9811 130.959 22.029C131.082 22.0769 131.195 22.1489 131.29 22.2409C131.385 22.3328 131.461 22.4428 131.514 22.5645C131.566 22.6862 131.594 22.8171 131.595 22.9495Z" fill="#263238"/>
<path d="M141.733 22.9495C141.724 23.2203 141.608 23.4765 141.412 23.6629C141.215 23.8494 140.953 23.9511 140.682 23.9462C140.55 23.9498 140.418 23.927 140.295 23.8791C140.171 23.8312 140.058 23.7592 139.963 23.6672C139.868 23.5753 139.792 23.4652 139.739 23.3436C139.687 23.2219 139.66 23.091 139.658 22.9586C139.668 22.6878 139.783 22.4316 139.98 22.2452C140.176 22.0587 140.438 21.957 140.709 21.9619C140.842 21.9583 140.974 21.9811 141.097 22.029C141.221 22.0769 141.333 22.1489 141.429 22.2409C141.524 22.3328 141.6 22.4428 141.652 22.5645C141.705 22.6862 141.732 22.8171 141.733 22.9495Z" fill="#263238"/>
<path d="M131.559 20.1681C131.423 20.2949 130.653 19.6697 129.557 19.6154C128.46 19.561 127.6 20.0774 127.482 19.9325C127.364 19.7875 127.572 19.6335 127.944 19.3979C128.441 19.085 129.024 18.9361 129.611 18.9721C130.191 18.9999 130.746 19.2127 131.197 19.5791C131.523 19.86 131.622 20.1046 131.559 20.1681Z" fill="#263238"/>
<path d="M135.074 29.029C135.666 28.8762 136.275 28.797 136.887 28.7935C137.167 28.7935 137.448 28.7391 137.503 28.5488C137.538 28.2569 137.488 27.9609 137.358 27.6971L136.615 25.4864C135.93 23.6112 135.397 21.6842 135.02 19.7239C135.854 21.5386 136.542 23.4171 137.077 25.3414C137.321 26.1206 137.548 26.8545 137.774 27.5612C137.935 27.914 137.964 28.3125 137.856 28.6847C137.81 28.7842 137.742 28.8718 137.658 28.9409C137.573 29.01 137.473 29.0588 137.367 29.0834C137.207 29.1047 137.046 29.1047 136.887 29.0834C136.283 29.1395 135.674 29.1213 135.074 29.029Z" fill="#263238"/>
<path d="M131.749 29.6273C131.939 29.6273 131.876 30.8414 132.863 31.7474C133.851 32.6535 135.147 32.5901 135.147 32.7622C135.147 32.9344 134.848 32.9797 134.304 32.9706C133.595 32.9415 132.919 32.6659 132.392 32.1914C131.888 31.7177 131.584 31.0697 131.541 30.3793C131.522 29.9081 131.667 29.6182 131.749 29.6273Z" fill="#263238"/>
<path d="M131.694 16.127C131.568 16.4169 130.471 16.2176 129.148 16.3082C127.825 16.3988 126.765 16.6978 126.602 16.4169C126.53 16.2901 126.729 16.0092 127.173 15.7374C127.758 15.4031 128.412 15.2107 129.085 15.1756C129.758 15.1294 130.432 15.2444 131.051 15.5109C131.522 15.7283 131.749 15.982 131.694 16.127Z" fill="#263238"/>
<path d="M141.978 16.5435C141.77 16.7881 141.018 16.4801 140.094 16.4257C139.169 16.3713 138.381 16.5072 138.218 16.2264C138.146 16.0995 138.282 15.8549 138.635 15.6284C139.107 15.3647 139.648 15.248 140.187 15.2932C140.726 15.3384 141.239 15.5434 141.661 15.8821C141.978 16.1539 142.051 16.4257 141.978 16.5435Z" fill="#263238"/>
<path d="M119.472 23.765C119.354 23.7015 114.57 22.0344 114.47 26.9905C114.371 31.9466 119.399 31.0315 119.399 30.9228C119.399 30.814 119.472 23.765 119.472 23.765Z" fill="#FFBE9D"/>
<path d="M117.905 28.9746C117.905 28.9746 117.823 29.038 117.669 29.1014C117.462 29.1801 117.233 29.1801 117.026 29.1014C116.718 28.8857 116.473 28.5931 116.314 28.2529C116.155 27.9127 116.088 27.5367 116.12 27.1625C116.118 26.7377 116.208 26.3174 116.382 25.9303C116.433 25.7753 116.52 25.635 116.637 25.5214C116.754 25.4077 116.897 25.3242 117.053 25.2779C117.151 25.2542 117.255 25.2657 117.346 25.3104C117.437 25.355 117.51 25.4301 117.551 25.5225C117.615 25.6675 117.551 25.7672 117.615 25.7762C117.678 25.7853 117.723 25.6947 117.687 25.4863C117.659 25.3631 117.592 25.2521 117.497 25.1692C117.359 25.0654 117.188 25.0169 117.017 25.0333C116.815 25.0738 116.627 25.1637 116.469 25.295C116.311 25.4263 116.188 25.5947 116.111 25.7853C115.887 26.2094 115.775 26.6832 115.784 27.1625C115.751 27.6041 115.848 28.0458 116.064 28.4325C116.28 28.8192 116.605 29.1337 116.999 29.337C117.132 29.3751 117.272 29.3843 117.41 29.364C117.547 29.3437 117.679 29.2943 117.796 29.2192C117.896 29.1105 117.923 28.9837 117.905 28.9746Z" fill="#EB996E"/>
<path d="M116.726 23.4479C117.198 23.4437 117.663 23.5669 118.071 23.8045C118.479 24.042 118.816 24.3852 119.046 24.798C119.327 25.5228 119.363 26.3292 119.644 27.054C119.752 27.4275 119.982 27.7542 120.297 27.9822C120.612 28.2103 120.995 28.3269 121.383 28.3134C121.645 28.2464 121.884 28.1113 122.077 27.9219C122.269 27.7326 122.408 27.4957 122.48 27.2352C122.613 26.7147 122.647 26.1737 122.579 25.6406C122.398 23.312 122.036 20.9925 122.063 18.6549C121.994 16.3047 122.625 13.987 123.875 11.9954C124.511 11.0121 125.4 10.2186 126.45 9.69872C127.499 9.17885 128.669 8.95186 129.837 9.04169C131.368 9.24102 132.736 10.1199 134.258 10.4189C135.157 10.5789 136.079 10.5341 136.958 10.2878C137.836 10.0415 138.648 9.60008 139.332 8.99638C139.513 8.84235 140.311 8.3712 140.311 8.3712C140.318 7.81954 140.164 7.27781 139.867 6.81279C136.976 3.85 131.549 2.78086 127.49 3.58724C125.427 3.98059 123.475 4.81913 121.769 6.0444C120.063 7.26966 118.645 8.85219 117.614 10.6816C115.693 14.3512 115.938 19.6063 116.708 23.4479" fill="#263238"/>
<path d="M138.072 7.57408C135.354 7.67375 130.09 8.68854 127.924 10.3738C127.671 10.5731 127.39 10.8993 127.562 11.1802C127.734 11.4611 127.988 11.3976 128.232 11.3886C130.747 11.5169 133.242 11.8963 135.68 12.5211C137.232 13.0694 138.874 13.3184 140.519 13.255C141.34 13.21 142.136 12.9525 142.829 12.5079C143.521 12.0632 144.086 11.4465 144.469 10.7181L145.167 10.9808C144.373 9.85489 143.304 8.95073 142.063 8.35442C140.821 7.75811 139.447 7.48947 138.072 7.57408Z" fill="#263238"/>
<path d="M143.755 10.9079C142.277 9.51729 140.382 8.65133 138.364 8.44339C132.094 7.87258 121.801 9.75717 116.346 20.5301C115.752 18.6657 115.381 16.7375 115.241 14.7858C115.241 13.3089 116.147 4.52924 125.208 1.81108C125.226 1.81108 138.871 -3.32624 143.755 10.9079Z" fill="#D6F5E2"/>
<path d="M117.198 18.999C119.916 14.4687 123.993 11.3428 128.387 8.62467C132.782 5.90651 140.021 3.25178 145.013 1.94706C146.492 1.47031 148.055 1.31583 149.598 1.49404C150.367 1.59437 151.092 1.90942 151.689 2.40304C152.287 2.89665 152.734 3.54882 152.978 4.28468C153.449 6.16927 150.096 9.05052 148.52 10.1831C147.061 11.1551 145.548 12.0444 143.99 12.8469C143.99 12.8469 143.808 9.47637 138.227 8.74246C130.625 7.7458 116.962 19.1893 117.198 18.999Z" fill="#D6F5E2"/>
<path d="M127.554 5.09129C129.209 4.3123 130.94 3.70509 132.719 3.27918C134.517 3.00152 136.338 2.90137 138.155 2.98018C137.644 2.79422 137.105 2.69618 136.56 2.69024C135.246 2.58508 133.923 2.65824 132.628 2.9077C131.338 3.16014 130.088 3.58687 128.913 4.17616C128.415 4.40694 127.956 4.71587 127.554 5.09129Z" fill="white"/>
<path d="M147.044 248.213L147.099 249.064C147.099 249.064 162.501 254.202 162.855 256.929L132.991 258.07L132.81 248.53C135.076 249.463 137.511 249.916 139.96 249.862C142.41 249.807 144.822 249.246 147.044 248.213Z" fill="#455A64"/>
<g opacity="0.6">
<path d="M132.991 258.07L132.945 255.778L161.558 255.515C161.558 255.515 162.918 256.023 162.827 256.929L132.991 258.07Z" fill="white"/>
</g>
<path d="M147.206 249.137C147.206 249.273 146.49 249.363 145.802 249.843C145.113 250.324 144.769 250.922 144.624 250.876C144.479 250.831 144.624 249.97 145.53 249.445C146.436 248.919 147.233 249.01 147.206 249.137Z" fill="#263238"/>
<path d="M150.415 250.26C150.46 250.396 149.844 250.65 149.382 251.266C148.92 251.882 148.82 252.507 148.675 252.507C148.53 252.507 148.385 251.719 148.974 250.967C149.563 250.215 150.406 250.124 150.415 250.26Z" fill="#263238"/>
<path d="M152.417 253.812C152.281 253.812 152.036 253.15 152.362 252.371C152.689 251.592 153.359 251.266 153.422 251.375C153.486 251.483 153.096 251.918 152.834 252.562C152.571 253.205 152.562 253.812 152.417 253.812Z" fill="#263238"/>
<path d="M149.435 181.518L144.379 164.665L137.647 143.21L138.018 132.165L126.747 124.4C119.381 124.527 97.9164 123.259 97.9164 123.259C97.9164 123.259 98.4691 134.458 99.5745 142.521C99.7986 144.121 100.391 145.647 101.305 146.979L111.19 161.395L128.188 193.106C128.188 193.106 129.32 204.432 129.791 214.217C130.317 225.181 132.084 245.023 132.084 245.023L149.57 245.44L150.667 201.515C151.111 194.919 151.6 187.77 149.435 181.518Z" fill="#263238"/>
<path d="M160.263 180.984C162.275 182.614 164.078 204.786 160.762 203.173L164.703 206.897L175.249 205.085L176.708 181.79L160.263 180.984Z" fill="#FFBE9D"/>
<path d="M130.454 114.724C130.454 114.724 174.144 126.611 178.674 136.016C180.5 139.096 181.353 142.655 181.121 146.227C180.858 152.57 177.252 198.171 177.252 198.171L160.753 197.084L159.167 180.259L158.895 154.789L160.046 151.89C158.783 152.182 157.469 152.166 156.213 151.845C154.338 151.292 125.87 142.676 125.87 142.676L114.752 125.152L130.454 114.724Z" fill="#263238"/>
<path d="M175.503 203.807V204.713C175.503 204.713 190.979 211.626 190.979 214.607L159.801 213.302L160.653 202.946C162.921 204.147 165.422 204.846 167.984 204.994C170.547 205.143 173.111 204.738 175.503 203.807Z" fill="#455A64"/>
<g opacity="0.6">
<path d="M159.829 213.302L160.028 210.811L189.847 212.976C189.847 212.976 191.206 213.637 191.006 214.607L159.829 213.302Z" fill="white"/>
</g>
<path d="M175.574 204.831C175.574 204.985 174.795 205.021 174.025 205.474C173.255 205.927 172.829 206.561 172.693 206.489C172.557 206.416 172.82 205.583 173.762 205.021C174.705 204.459 175.62 204.686 175.574 204.831Z" fill="#263238"/>
<path d="M178.791 206.317C178.791 206.471 178.157 206.697 177.604 207.322C177.051 207.948 176.888 208.618 176.698 208.609C176.508 208.6 176.49 207.703 177.178 206.969C177.867 206.235 178.8 206.172 178.791 206.317Z" fill="#263238"/>
<path d="M180.485 210.321C180.349 210.321 180.168 209.578 180.594 208.763C181.02 207.947 181.745 207.639 181.808 207.766C181.872 207.893 181.41 208.328 181.065 208.998C180.721 209.669 180.639 210.321 180.485 210.321Z" fill="#263238"/>
<path d="M167.022 143.427C166.499 143.669 166.016 143.99 165.591 144.379C164.511 145.256 163.54 146.26 162.7 147.369C161.86 148.487 161.16 149.704 160.616 150.993C160.355 151.508 160.178 152.062 160.091 152.633C160.921 150.887 161.897 149.214 163.008 147.631C164.224 146.118 165.567 144.712 167.022 143.427Z" fill="#455A64"/>
<path d="M163.48 139.966C163.072 140.464 162.737 141.016 162.483 141.606C161.102 144.385 160.315 147.422 160.173 150.522C160.116 151.16 160.143 151.803 160.254 152.434C160.362 151.808 160.426 151.175 160.444 150.54C160.586 149.012 160.846 147.497 161.224 146.01C161.604 144.532 162.101 143.087 162.71 141.688C163.001 141.13 163.258 140.555 163.48 139.966Z" fill="#455A64"/>
<path d="M134.214 133.497C134.331 133.497 136.307 138.933 138.617 145.638C140.927 152.343 142.703 157.888 142.576 157.933C142.45 157.979 140.483 152.542 138.173 145.792C135.863 139.042 134.087 133.542 134.214 133.497Z" fill="#455A64"/>
<path d="M140.873 53.3204L148.004 50.4573L166.605 60.5598L159.012 77.9379L142.64 69.8106L140.873 53.3204Z" fill="#455A64"/>
<path d="M148.005 50.4571L136.697 46.1806C136.697 46.1806 134.224 51.4085 128.815 49.8048C123.406 48.2011 117.444 43.3809 117.444 43.3809C117.444 43.3809 107.16 47.4581 104.025 49.3155C100.89 51.1729 99.1959 99.3659 99.1959 99.3659L98.3442 118.012L97.8369 121.528C97.6205 123.211 97.5085 124.905 97.5016 126.602C116.665 130.906 135.61 126.348 145.767 120.713C145.767 120.713 147.108 119.661 146.528 117.26C145.948 114.859 144.716 114.443 144.716 114.443L144.97 93.3678L146.854 71.8128L148.005 50.4571Z" fill="#455A64"/>
<path d="M158.125 104.965L132.683 94.437L116.917 59.5267L102.892 65.4161C102.892 65.4161 117.95 103.271 123.794 106.415C129.638 109.559 153.739 111.009 153.739 111.009L158.125 104.965Z" fill="#FFBE9D"/>
<path d="M103.997 49.3157C103.997 49.3157 98.6971 51.9704 98.7061 62.1182C98.7061 70.9341 101.306 84.987 101.306 84.987L126.277 76.298L118.558 58.3581C116.746 54.0816 112.723 46.217 103.997 49.3157Z" fill="#455A64"/>
<path d="M104.187 83.9902C104.321 83.9198 104.461 83.8592 104.604 83.809L105.827 83.3378L110.421 81.6707L126.231 76.0803L126.095 76.3703C125.307 73.9964 124.446 71.4595 123.504 68.8772C122.018 64.8091 120.469 60.9946 118.883 57.5969C118.183 55.9795 117.33 54.4322 116.337 52.976C115.498 51.7021 114.33 50.6785 112.957 50.0132C110.929 49.0936 108.697 48.7159 106.479 48.9169C105.882 48.9855 105.298 49.1443 104.749 49.388C104.569 49.5048 104.382 49.6078 104.187 49.6961C104.187 49.6961 104.187 49.6508 104.314 49.5874C104.433 49.4797 104.564 49.3855 104.703 49.3065C105.248 49.0142 105.84 48.8209 106.452 48.7357C108.713 48.4567 111.007 48.7915 113.093 49.7051C114.533 50.3806 115.763 51.4324 116.654 52.7495C117.678 54.2153 118.555 55.7782 119.273 57.4157C120.895 60.8134 122.453 64.6641 123.948 68.7141C124.854 71.3054 125.76 73.8424 126.521 76.2253L126.594 76.4428L126.385 76.5153L110.52 81.9516L105.881 83.4919L104.631 83.8905C104.488 83.9436 104.339 83.9771 104.187 83.9902Z" fill="#263238"/>
<path d="M143.574 115.186C143.187 115.549 142.772 115.882 142.333 116.182C141.925 116.491 141.427 116.862 140.802 117.243C140.177 117.623 139.497 118.103 138.691 118.529C137.884 118.955 137.005 119.435 136.018 119.906C135.03 120.377 133.979 120.812 132.847 121.256C130.371 122.157 127.826 122.851 125.236 123.331C122.64 123.763 120.012 123.975 117.38 123.965C116.166 123.965 115.006 123.911 113.937 123.775C112.941 123.7 111.949 123.573 110.965 123.395C110.059 123.268 109.253 123.059 108.537 122.905C107.821 122.751 107.223 122.579 106.725 122.425C106.209 122.298 105.706 122.125 105.221 121.909C105.745 121.983 106.263 122.095 106.77 122.244C107.269 122.371 107.867 122.525 108.582 122.643C109.298 122.76 110.096 122.96 111.002 123.059C111.908 123.159 112.895 123.331 113.964 123.386C115.034 123.44 116.166 123.503 117.371 123.531C119.976 123.519 122.576 123.294 125.145 122.86C127.711 122.393 130.235 121.721 132.693 120.849C133.807 120.405 134.885 120.015 135.846 119.553C136.806 119.091 137.712 118.647 138.564 118.239C139.415 117.831 140.068 117.387 140.693 117.016C141.232 116.714 141.755 116.384 142.26 116.028C142.675 115.713 143.115 115.431 143.574 115.186Z" fill="#263238"/>
<path d="M143.682 70.8163H136.697V74.1234H143.682V70.8163Z" fill="white"/>
<path d="M147.641 60.5508C147.777 60.5508 147.515 65.6609 147.071 71.9308C146.627 78.2007 146.165 83.2927 146.029 83.2837C145.893 83.2746 146.155 78.1735 146.599 71.9037C147.043 65.6338 147.487 60.5417 147.641 60.5508Z" fill="#263238"/>
<path d="M87.5507 83.9904H21.5538V98.4057H87.5507V83.9904Z" fill="#0A2916"/>
<path d="M92.0006 98.5598H17.1516V156.284H92.0006V98.5598Z" fill="#D6F5E2"/>
<path d="M73.2458 155.886C73.1642 155.886 73.0917 143.02 73.0917 127.146C73.0917 111.272 73.1642 98.4056 73.2458 98.4056C73.3273 98.4056 73.3907 111.272 73.3907 127.146C73.3907 143.02 73.3273 155.886 73.2458 155.886Z" fill="#263238"/>
<path d="M89.3913 143.156H79.914V152.633H89.3913V143.156Z" fill="#F5F5F5"/>
<path opacity="0.3" d="M48.4373 98.5598H39.9385V110.882H48.4373V98.5598Z" fill="white"/>
<path opacity="0.3" d="M48.4836 143.971H39.9848V156.293H48.4836V143.971Z" fill="white"/>
<path opacity="0.3" d="M92.0016 98.4056H73.2463V156.447H92.0016V98.4056Z" fill="#114424"/>
<path d="M91.7469 98.5598C91.7469 98.6957 75.0755 98.7954 54.5172 98.7954C33.9588 98.7954 17.2784 98.6957 17.2784 98.5598C17.2784 98.4239 33.9498 98.3242 54.5172 98.3242C75.0846 98.3242 91.7469 98.4329 91.7469 98.5598Z" fill="#263238"/>
<path opacity="0.3" d="M87.5518 83.9904H69.0774V98.306H87.5518V83.9904Z" fill="#0A2916"/>
<path d="M68.9329 98.2152C68.7 95.9005 68.6213 93.5728 68.6974 91.2477C68.621 88.9225 68.6997 86.5949 68.9329 84.2802C69.1717 86.5945 69.2504 88.9225 69.1685 91.2477C69.25 93.5728 69.1713 95.9009 68.9329 98.2152Z" fill="#263238"/>
<path d="M50.2236 83.9904H40.9365V88.3575H50.2236V83.9904Z" fill="white"/>
<path d="M53.9372 84.2713C53.9254 84.2023 53.9254 84.1319 53.9372 84.0629L54.0097 83.4377C54.0731 82.9031 54.1909 82.1058 54.4084 81.082C54.9928 78.1872 56.1013 75.4237 57.6792 72.9275C58.2205 72.1044 58.8264 71.3258 59.4913 70.599C60.1663 69.7652 60.9746 69.0488 61.8833 68.4788C62.3982 68.1696 62.9973 68.0301 63.5958 68.0801C63.9112 68.134 64.2082 68.2657 64.4598 68.4635C64.7114 68.6613 64.9096 68.9189 65.0364 69.2127C65.4315 70.3844 65.4599 71.6487 65.1179 72.8369C64.4492 75.3704 63.069 77.6593 61.1404 79.433C59.0827 81.2841 56.8212 82.8951 54.3993 84.2351L54.0641 84.4344L53.9282 84.5159L53.8013 84.4253C51.5628 82.8361 49.443 81.0858 47.459 79.1883C45.5986 77.4098 44.0652 75.3183 42.9287 73.0091C42.6397 72.4627 42.4234 71.8809 42.2854 71.2785C42.1378 70.6738 42.1919 70.0375 42.4394 69.4664C42.562 69.1737 42.7538 68.9152 42.9985 68.7132C43.2431 68.5112 43.5332 68.3716 43.8438 68.3066C44.445 68.2448 45.048 68.406 45.5381 68.7597C45.9834 69.074 46.3909 69.4388 46.7522 69.8469C47.1147 70.2275 47.4499 70.6171 47.7761 70.9976C48.3967 71.7362 48.9774 72.5074 49.5157 73.3081C51.1606 75.7147 52.4229 78.3615 53.2577 81.1545C53.4771 81.9114 53.6555 82.6797 53.7923 83.4559L53.8829 84.0629C53.8869 84.1323 53.8869 84.2019 53.8829 84.2713C53.8829 84.2713 53.8829 84.2079 53.8194 84.072L53.6835 83.474C53.5658 82.9485 53.3755 82.1783 53.0674 81.2088C52.1826 78.471 50.9038 75.8766 49.2711 73.5074C48.7315 72.7222 48.1508 71.9661 47.5314 71.2423C47.2053 70.8617 46.87 70.4812 46.5076 70.1188C46.1627 69.733 45.7734 69.3893 45.3478 69.0949C44.9421 68.8004 44.4424 68.665 43.9435 68.7144C43.7005 68.764 43.4734 68.8725 43.2822 69.0305C43.091 69.1885 42.9416 69.3911 42.8471 69.6204C42.3851 70.5989 42.8471 71.7859 43.3455 72.8278C44.47 75.1115 45.9847 77.1812 47.8214 78.9437C49.7859 80.8212 51.8844 82.5533 54.1003 84.1263H53.8376L54.1728 83.927C56.5638 82.603 58.7978 81.0134 60.8323 79.1883C62.7046 77.4883 64.0504 75.2873 64.7102 72.846C65.0513 71.7453 65.0513 70.5671 64.7102 69.4664C64.6101 69.2308 64.4521 69.0243 64.251 68.8659C64.0499 68.7075 63.812 68.6024 63.5595 68.5603C63.0491 68.5178 62.5383 68.6383 62.1008 68.9046C61.2256 69.4512 60.4426 70.1331 59.7813 70.9251C59.1201 71.6359 58.5143 72.3962 57.9692 73.1993C56.3841 75.6451 55.2403 78.3498 54.5896 81.1907C54.354 82.1964 54.2091 83.0028 54.1094 83.5193L54.0007 84.1263L53.9372 84.2713Z" fill="#263238"/>
<path d="M92.2182 124.083C92.2182 124.21 75.4381 124.319 54.7529 124.319C34.0677 124.319 17.2876 124.21 17.2876 124.083C17.2876 123.957 34.0587 123.848 54.7529 123.848C75.4472 123.848 92.2182 123.948 92.2182 124.083Z" fill="#263238"/>
<path d="M54.0825 157.217C53.9557 157.217 53.8469 140.709 53.8469 120.35C53.8469 99.9911 53.9557 83.4738 54.0825 83.4738C54.2093 83.4738 54.3181 99.9821 54.3181 120.35C54.3181 140.718 54.2184 157.217 54.0825 157.217Z" fill="#263238"/>
</svg>
